<svg xmlns="http://www.w3.org/2000/svg" viewBox="0 0 1000 620" font-family="'Share Tech Mono', ui-monospace, monospace">
  <defs>
    <marker id="ah" markerWidth="9" markerHeight="9" refX="7" refY="4.5" orient="auto">
      <path d="M0 0 L8 4.5 L0 9 Z" fill="#05d9e8"/>
    </marker>
    <marker id="ahm" markerWidth="9" markerHeight="9" refX="7" refY="4.5" orient="auto">
      <path d="M0 0 L8 4.5 L0 9 Z" fill="#7a8ba8"/>
    </marker>
    <style>
      .t     { fill:#e0f0ff; font-size:12px; }
      .dim   { fill:#7a8ba8; font-size:11px; }
      .cyan  { fill:#05d9e8; }
      .mag   { fill:#d300c5; }
      .pink  { fill:#ff6b9d; }
      .green { fill:#39ff14; }
      .title { font-family:'Orbitron', sans-serif; font-weight:700; }
      .h     { fill:#05d9e8; font-size:13px; font-family:'Orbitron', sans-serif; font-weight:700; }
      .box   { fill:#0d0d1a; stroke:#05d9e8; stroke-width:1.5; }
      .jitbx { fill:#0d0d1a; stroke:#d300c5; stroke-width:1.5; }
      .aotbx { fill:#0d0d1a; stroke:#ff2a6d; stroke-width:1.5; }
      .optbx { fill:#0b140b; stroke:#39ff14; stroke-width:1.4; }
      .chip  { fill:#10102a; stroke:#1a1a3e; stroke-width:1; }
      .sub   { fill:#10102a; stroke:#2a1a4e; stroke-width:1; }
      .arrow { stroke:#05d9e8; stroke-width:1.6; fill:none; marker-end:url(#ah); }
      .dash  { stroke:#7a8ba8; stroke-width:1.1; stroke-dasharray:4 3; fill:none; marker-end:url(#ahm); }
    </style>
  </defs>

  <rect x="0" y="0" width="1000" height="620" fill="#0a0a14"/>
  <rect x="2" y="2" width="996" height="616" fill="none" stroke="#1a1a3e" stroke-width="1"/>

  <text x="24" y="34" class="title" fill="#05d9e8" font-size="19">THE MENKETECHNOLOGIES STACK</text>
  <text x="24" y="52" class="dim">one execution engine at the base &#8594; five languages &#8594; shared GUI/DSP/host substrates &#8594; every domain built on top</text>

  <!-- ===== DOMAINS ===== -->
  <text x="20" y="78" class="h">DOMAINS</text>
  <text x="120" y="78" class="dim">shipping products &#8212; each stands on the substrates &amp; languages below</text>

  <!-- domains row 1 -->
  <rect x="20"  y="86" width="231" height="88" rx="4" class="box"/>
  <text x="135" y="106" class="cyan title" font-size="11.5" text-anchor="middle">Shell / terminal</text>
  <text x="135" y="128" class="dim" font-size="10" text-anchor="middle">zshrs + zpwr</text>
  <text x="135" y="146" class="dim" font-size="10" text-anchor="middle">506+ subcommands</text>

  <rect x="261" y="86" width="231" height="88" rx="4" class="box"/>
  <text x="376" y="106" class="cyan title" font-size="11.5" text-anchor="middle">CLI tools</text>
  <text x="376" y="128" class="dim" font-size="10" text-anchor="middle">lsofrs &#183; iftoprs &#183; nmaprs</text>
  <text x="376" y="146" class="dim" font-size="10" text-anchor="middle">temprs &#183; storageshower</text>

  <rect x="502" y="86" width="231" height="88" rx="4" class="box"/>
  <text x="617" y="106" class="cyan title" font-size="11.5" text-anchor="middle">GUI fleet</text>
  <text x="617" y="126" class="dim" font-size="10" text-anchor="middle">zmax-gui &#183; zemail &#183; zoffice</text>
  <text x="617" y="142" class="dim" font-size="10" text-anchor="middle">zpdf &#183; zphoto &#183; traderview</text>
  <text x="617" y="158" class="dim" font-size="10" text-anchor="middle">ztranslator &#183; (+ ZGui.tmux)</text>

  <rect x="743" y="86" width="231" height="88" rx="4" class="box"/>
  <text x="858" y="106" class="cyan title" font-size="11.5" text-anchor="middle">Audio / DAW</text>
  <text x="858" y="126" class="dim" font-size="10" text-anchor="middle">zpwr-daw &#183; zpwr-synth</text>
  <text x="858" y="142" class="dim" font-size="10" text-anchor="middle">zpwr-fx &#183; zpwr-midi-fx</text>
  <text x="858" y="158" class="dim" font-size="10" text-anchor="middle">Audio-Haxor</text>

  <!-- domains row 2 -->
  <rect x="20"  y="182" width="311" height="80" rx="4" class="box"/>
  <text x="175" y="202" class="cyan title" font-size="11.5" text-anchor="middle">Browser</text>
  <text x="175" y="224" class="dim" font-size="10" text-anchor="middle">zwire &#8212; 24-patch Chromium fork</text>
  <text x="175" y="242" class="dim" font-size="10" text-anchor="middle">hud-internal + zpwrchrome</text>

  <rect x="341" y="182" width="311" height="80" rx="4" class="box"/>
  <text x="496" y="202" class="cyan title" font-size="11.5" text-anchor="middle">Data</text>
  <text x="496" y="224" class="dim" font-size="10" text-anchor="middle">strykelang connectors</text>
  <text x="496" y="242" class="dim" font-size="10" text-anchor="middle">31 repos</text>

  <rect x="662" y="182" width="312" height="80" rx="4" class="box"/>
  <text x="818" y="202" class="cyan title" font-size="11.5" text-anchor="middle">Publications</text>
  <text x="818" y="224" class="dim" font-size="10" text-anchor="middle">the FIRSTS book pipeline</text>
  <text x="818" y="242" class="dim" font-size="10" text-anchor="middle">docs &#183; diagrams &#183; render</text>

  <!-- domains -> substrates -->
  <path d="M135 262 L135 296" class="arrow"/>
  <path d="M376 262 L376 296" class="arrow"/>
  <path d="M617 262 L617 296" class="arrow"/>
  <path d="M858 262 L858 296" class="arrow"/>

  <!-- ===== SHARED SUBSTRATES ===== -->
  <text x="20" y="290" class="h">SHARED SUBSTRATES</text>
  <text x="205" y="290" class="dim">reusable native crates every domain links against</text>

  <rect x="20"  y="298" width="231" height="66" rx="4" class="sub"/>
  <text x="135" y="322" class="cyan title" font-size="12" text-anchor="middle">zwire-host</text>
  <text x="135" y="344" class="dim" font-size="10.5" text-anchor="middle">native agent</text>

  <rect x="261" y="298" width="231" height="66" rx="4" class="sub"/>
  <text x="376" y="322" class="cyan title" font-size="12" text-anchor="middle">zgui-core</text>
  <text x="376" y="344" class="dim" font-size="10.5" text-anchor="middle">cyberpunk GUI toolkit</text>

  <rect x="502" y="298" width="231" height="66" rx="4" class="sub"/>
  <text x="617" y="322" class="cyan title" font-size="12" text-anchor="middle">zdsp-core</text>
  <text x="617" y="344" class="dim" font-size="10.5" text-anchor="middle">audio DSP library</text>

  <rect x="743" y="298" width="231" height="66" rx="4" class="sub"/>
  <text x="858" y="322" class="cyan title" font-size="12" text-anchor="middle">zpwr-patch-core</text>
  <text x="858" y="344" class="dim" font-size="10.5" text-anchor="middle">modular DSP graph</text>

  <!-- substrates -> languages -->
  <path d="M135 364 L135 394" class="arrow"/>
  <path d="M376 364 L376 394" class="arrow"/>
  <path d="M617 364 L617 394" class="arrow"/>
  <path d="M858 364 L858 394" class="arrow"/>

  <!-- ===== LANGUAGES ===== -->
  <text x="20" y="388" class="h">LANGUAGES</text>
  <text x="155" y="388" class="dim">five frontends, one shared bytecode</text>

  <rect x="20"  y="396" width="182" height="62" rx="4" class="box"/>
  <text x="111" y="420" class="cyan title" font-size="12.5" text-anchor="middle">strykelang</text>
  <text x="111" y="440" class="dim" font-size="10.5" text-anchor="middle">Perl 5 superset</text>

  <rect x="213" y="396" width="182" height="62" rx="4" class="box"/>
  <text x="304" y="420" class="cyan title" font-size="12.5" text-anchor="middle">zshrs</text>
  <text x="304" y="440" class="dim" font-size="10.5" text-anchor="middle">zsh</text>

  <rect x="406" y="396" width="182" height="62" rx="4" class="box"/>
  <text x="497" y="420" class="cyan title" font-size="12.5" text-anchor="middle">awkrs</text>
  <text x="497" y="440" class="dim" font-size="10.5" text-anchor="middle">AWK</text>

  <rect x="599" y="396" width="182" height="62" rx="4" class="box"/>
  <text x="690" y="420" class="cyan title" font-size="12.5" text-anchor="middle">vimlrs</text>
  <text x="690" y="440" class="dim" font-size="10.5" text-anchor="middle">VimL</text>

  <rect x="792" y="396" width="182" height="62" rx="4" class="box"/>
  <text x="883" y="420" class="cyan title" font-size="12.5" text-anchor="middle">elisprs</text>
  <text x="883" y="440" class="dim" font-size="10.5" text-anchor="middle">Emacs Lisp</text>

  <!-- languages -> foundation -->
  <path d="M111 458 L111 488" class="arrow"/>
  <path d="M304 458 L304 488" class="arrow"/>
  <path d="M497 458 L497 488" class="arrow"/>
  <path d="M690 458 L690 488" class="arrow"/>
  <path d="M883 458 L883 488" class="arrow"/>

  <!-- ===== FOUNDATION ===== -->
  <text x="20" y="482" class="h">FOUNDATION</text>
  <text x="150" y="482" class="dim">the engine under everything</text>

  <rect x="20" y="490" width="954" height="74" rx="4" class="box"/>
  <text x="38" y="514" class="title" fill="#05d9e8" font-size="14">fusevm &#8212; bytecode VM + 3-tier Cranelift JIT + AOT</text>
  <text x="38" y="536" class="dim">interpreter (semantics) &#183; JIT tiers <tspan class="mag">linear &#183; block &#183; tracing</tspan> &#183; AOT <tspan class="pink">cranelift_object &#8594; .o</tspan> &#183; ~224 opcodes</text>
  <text x="38" y="554" class="green" font-size="11">the single execution engine every language and every domain above ultimately runs on</text>

  <text x="24" y="600" class="dim" font-size="10">one execution engine &#183; five languages &#183; shared GUI/DSP/host substrates &#183; every domain on top &#183; fusevm</text>
</svg>
