<svg xmlns="http://www.w3.org/2000/svg" viewBox="0 0 1000 620" font-family="'Share Tech Mono', ui-monospace, monospace">
  <defs>
    <marker id="ah" markerWidth="9" markerHeight="9" refX="7" refY="4.5" orient="auto">
      <path d="M0 0 L8 4.5 L0 9 Z" fill="#05d9e8"/>
    </marker>
    <marker id="ahm" markerWidth="9" markerHeight="9" refX="7" refY="4.5" orient="auto">
      <path d="M0 0 L8 4.5 L0 9 Z" fill="#7a8ba8"/>
    </marker>
    <style>
      .t     { fill:#e0f0ff; font-size:12px; }
      .dim   { fill:#7a8ba8; font-size:11px; }
      .cyan  { fill:#05d9e8; }
      .mag   { fill:#d300c5; }
      .pink  { fill:#ff6b9d; }
      .green { fill:#39ff14; }
      .title { font-family:'Orbitron', sans-serif; font-weight:700; }
      .h     { fill:#05d9e8; font-size:13px; font-family:'Orbitron', sans-serif; font-weight:700; }
      .box   { fill:#0d0d1a; stroke:#05d9e8; stroke-width:1.5; }
      .jitbx { fill:#0d0d1a; stroke:#d300c5; stroke-width:1.5; }
      .aotbx { fill:#0d0d1a; stroke:#ff2a6d; stroke-width:1.5; }
      .optbx { fill:#0b140b; stroke:#39ff14; stroke-width:1.4; }
      .chip  { fill:#10102a; stroke:#1a1a3e; stroke-width:1; }
      .sub   { fill:#10102a; stroke:#2a1a4e; stroke-width:1; }
      .arrow { stroke:#05d9e8; stroke-width:1.6; fill:none; marker-end:url(#ah); }
      .dash  { stroke:#7a8ba8; stroke-width:1.1; stroke-dasharray:4 3; fill:none; marker-end:url(#ahm); }
    </style>
  </defs>

  <rect x="0" y="0" width="1000" height="620" fill="#0a0a14"/>
  <rect x="2" y="2" width="996" height="616" fill="none" stroke="#1a1a3e" stroke-width="1"/>

  <text x="24" y="34" class="title" fill="#05d9e8" font-size="19">FUSEVM &#8212; ONE VM, TWELVE TONGUES, THREE EXECUTION TIERS</text>
  <text x="24" y="52" class="dim">twelve language frontends lower their own lex &#8594; parse &#8594; AST onto one shared bytecode; the VM interprets, JITs, or AOT-compiles it</text>

  <!-- ===== FRONTENDS (twelve, one row) ===== -->
  <rect x="20" y="70" width="76" height="66" rx="4" class="box"/>
  <text x="58" y="97"  class="cyan title" font-size="11" text-anchor="middle">strykelang</text>
  <text x="58" y="115" class="dim" font-size="9.5" text-anchor="middle">Perl 5</text>
  <rect x="100" y="70" width="76" height="66" rx="4" class="box"/>
  <text x="138" y="97"  class="cyan title" font-size="11" text-anchor="middle">zshrs</text>
  <text x="138" y="115" class="dim" font-size="9.5" text-anchor="middle">zsh</text>
  <rect x="180" y="70" width="76" height="66" rx="4" class="box"/>
  <text x="218" y="97"  class="cyan title" font-size="11" text-anchor="middle">awkrs</text>
  <text x="218" y="115" class="dim" font-size="9.5" text-anchor="middle">AWK</text>
  <rect x="260" y="70" width="76" height="66" rx="4" class="box"/>
  <text x="298" y="97"  class="cyan title" font-size="11" text-anchor="middle">vimlrs</text>
  <text x="298" y="115" class="dim" font-size="9.5" text-anchor="middle">VimL</text>
  <rect x="340" y="70" width="76" height="66" rx="4" class="box"/>
  <text x="378" y="97"  class="cyan title" font-size="11" text-anchor="middle">elisprs</text>
  <text x="378" y="115" class="dim" font-size="9.5" text-anchor="middle">Emacs Lisp</text>
  <rect x="420" y="70" width="76" height="66" rx="4" class="box"/>
  <text x="458" y="97"  class="cyan title" font-size="11" text-anchor="middle">rubylang</text>
  <text x="458" y="115" class="dim" font-size="9.5" text-anchor="middle">Ruby</text>
  <rect x="500" y="70" width="76" height="66" rx="4" class="box"/>
  <text x="538" y="97"  class="cyan title" font-size="11" text-anchor="middle">arb</text>
  <text x="538" y="115" class="dim" font-size="9.5" text-anchor="middle">pipeline DSL</text>
  <rect x="580" y="70" width="76" height="66" rx="4" class="box"/>
  <text x="618" y="97"  class="cyan title" font-size="11" text-anchor="middle">pythonrs</text>
  <text x="618" y="115" class="dim" font-size="9.5" text-anchor="middle">Python</text>
  <rect x="660" y="70" width="76" height="66" rx="4" class="box"/>
  <text x="698" y="97"  class="cyan title" font-size="11" text-anchor="middle">phplang</text>
  <text x="698" y="115" class="dim" font-size="9.5" text-anchor="middle">PHP</text>
  <rect x="740" y="70" width="76" height="66" rx="4" class="box"/>
  <text x="778" y="97"  class="cyan title" font-size="11" text-anchor="middle">node-js</text>
  <text x="778" y="115" class="dim" font-size="9.5" text-anchor="middle">JavaScript</text>
  <rect x="820" y="70" width="76" height="66" rx="4" class="box"/>
  <text x="858" y="97"  class="cyan title" font-size="11" text-anchor="middle">javars</text>
  <text x="858" y="115" class="dim" font-size="9.5" text-anchor="middle">Java</text>
  <rect x="900" y="70" width="76" height="66" rx="4" class="box"/>
  <text x="938" y="97"  class="cyan title" font-size="11" text-anchor="middle">kotlinrs</text>
  <text x="938" y="115" class="dim" font-size="9.5" text-anchor="middle">Kotlin</text>

  <path d="M58 136 L58 158 L500 158" class="arrow" marker-end="none"/>
  <path d="M138 136 L138 158 L500 158" class="arrow" marker-end="none"/>
  <path d="M218 136 L218 158 L500 158" class="arrow" marker-end="none"/>
  <path d="M298 136 L298 158 L500 158" class="arrow" marker-end="none"/>
  <path d="M378 136 L378 158 L500 158" class="arrow" marker-end="none"/>
  <path d="M458 136 L458 158 L500 158" class="arrow" marker-end="none"/>
  <path d="M538 136 L538 158 L500 158" class="arrow" marker-end="none"/>
  <path d="M618 136 L618 158 L500 158" class="arrow" marker-end="none"/>
  <path d="M698 136 L698 158 L500 158" class="arrow" marker-end="none"/>
  <path d="M778 136 L778 158 L500 158" class="arrow" marker-end="none"/>
  <path d="M858 136 L858 158 L500 158" class="arrow" marker-end="none"/>
  <path d="M938 136 L938 158 L500 158" class="arrow" marker-end="none"/>
  <path d="M500 158 L500 176" class="arrow"/>


  <!-- ===== BYTECODE ===== -->
  <rect x="20" y="178" width="960" height="40" rx="4" class="box"/>
  <text x="38" y="203" class="h">fusevm bytecode</text>
  <text x="210" y="203" class="dim">one shared instruction set &#183; fusevm::Chunk / Op &#183; ~224 opcodes &#183; host-trait injection seam (host.rs / awk_host.rs)</text>
  <path d="M500 218 L500 244" class="arrow"/>

  <!-- ===== VM CORE ===== -->
  <rect x="20" y="246" width="960" height="58" rx="4" class="box"/>
  <text x="38" y="270" class="h">FUSEVM &#8212; bytecode virtual machine</text>
  <text x="38" y="290" class="dim">register/stack ops &#183; one <tspan class="cyan">VM::exec_op</tspan> per-op step = the single source of truth reused by every tier below</text>

  <path d="M170 304 L170 344" class="arrow"/>
  <path d="M500 304 L500 344" class="arrow"/>
  <path d="M830 304 L830 344" class="arrow"/>

  <!-- ===== TIER 1: INTERPRETER ===== -->
  <rect x="20" y="346" width="300" height="196" rx="4" class="box"/>
  <text x="38" y="368" class="h">INTERPRETER</text>
  <text x="38" y="385" class="dim">default &#183; always available</text>
  <rect x="38" y="398" width="264" height="34" rx="3" class="sub"/>
  <text x="170" y="419" class="cyan" text-anchor="middle" font-size="12">VM::exec_op dispatch loop</text>
  <text x="38" y="454" class="dim">&#8250; portable, no codegen</text>
  <text x="38" y="472" class="dim">&#8250; the fallback when JIT is off</text>
  <text x="38" y="490" class="dim">&#8250; deopt target for the tracer</text>
  <text x="38" y="522" class="green" font-size="10.5">semantics defined once, here</text>

  <!-- ===== TIER 2: JIT (marquee) ===== -->
  <rect x="345" y="346" width="310" height="196" rx="4" class="jitbx"/>
  <text x="363" y="368" class="title" fill="#d300c5" font-size="13">JIT &#8212; Cranelift, 3 tiers</text>
  <text x="363" y="385" class="dim">hot code &#8594; native machine code</text>
  <rect x="363" y="396" width="86" height="30" rx="3" class="chip"/>
  <text x="406" y="415" class="cyan" text-anchor="middle" font-size="11">linear</text>
  <rect x="455" y="396" width="86" height="30" rx="3" class="chip"/>
  <text x="498" y="415" class="cyan" text-anchor="middle" font-size="11">block</text>
  <rect x="547" y="396" width="90" height="30" rx="3" class="chip"/>
  <text x="592" y="415" class="cyan" text-anchor="middle" font-size="11">tracing</text>
  <path d="M449 411 L455 411" class="arrow"/>
  <path d="M541 411 L547 411" class="arrow"/>
  <text x="363" y="448" class="dim">&#8250; inlines calls, stitches side traces</text>
  <text x="363" y="466" class="dim">&#8250; deopt rebuilds interpreter state</text>
  <text x="363" y="484" class="dim">&#8250; mmap + PROT_EXEC disk cache</text>
  <text x="363" y="522" class="mag" font-size="10.5">machine-code JIT, from scratch, solo</text>

  <!-- ===== TIER 3: AOT ===== -->
  <rect x="680" y="346" width="300" height="196" rx="4" class="aotbx"/>
  <text x="698" y="368" class="title" fill="#ff6b9d" font-size="13">AOT COMPILER</text>
  <text x="698" y="385" class="dim">whole-program &#8594; object file</text>
  <rect x="698" y="398" width="264" height="34" rx="3" class="sub"/>
  <text x="830" y="419" class="pink" text-anchor="middle" font-size="12">cranelift_object &#8594; .o</text>
  <text x="698" y="454" class="dim">&#8250; relocatable, staticlib link</text>
  <text x="698" y="472" class="dim">&#8250; calls back into VM::exec_op</text>
  <text x="698" y="490" class="dim">&#160;&#160;via an extern &quot;C&quot; shim</text>
  <text x="698" y="522" class="pink" font-size="10.5">AOT + interpreter can't diverge</text>

  <text x="24" y="600" class="dim" font-size="10">signal flows top &#8594; bottom (cyan); the interpreter defines semantics once, and the Cranelift JIT and AOT tiers reuse it &#183; fusevm</text>
</svg>
