<svg xmlns="http://www.w3.org/2000/svg" viewBox="0 0 1000 650" font-family="'Share Tech Mono', ui-monospace, monospace">
  <defs>
    <marker id="ah" markerWidth="9" markerHeight="9" refX="7" refY="4.5" orient="auto">
      <path d="M0 0 L8 4.5 L0 9 Z" fill="#05d9e8"/>
    </marker>
    <marker id="ahm" markerWidth="9" markerHeight="9" refX="7" refY="4.5" orient="auto">
      <path d="M0 0 L8 4.5 L0 9 Z" fill="#7a8ba8"/>
    </marker>
    <style>
      .t     { fill:#e0f0ff; font-size:12px; }
      .dim   { fill:#7a8ba8; font-size:11px; }
      .cyan  { fill:#05d9e8; }
      .mag   { fill:#d300c5; }
      .pink  { fill:#ff6b9d; }
      .green { fill:#39ff14; }
      .title { font-family:'Orbitron', sans-serif; font-weight:700; }
      .h     { fill:#05d9e8; font-size:13px; font-family:'Orbitron', sans-serif; font-weight:700; }
      .box   { fill:#0d0d1a; stroke:#05d9e8; stroke-width:1.5; }
      .jitbx { fill:#0d0d1a; stroke:#d300c5; stroke-width:1.5; }
      .aotbx { fill:#0d0d1a; stroke:#ff2a6d; stroke-width:1.5; }
      .optbx { fill:#0b140b; stroke:#39ff14; stroke-width:1.4; }
      .chip  { fill:#10102a; stroke:#1a1a3e; stroke-width:1; }
      .sub   { fill:#10102a; stroke:#2a1a4e; stroke-width:1; }
      .arrow { stroke:#05d9e8; stroke-width:1.6; fill:none; marker-end:url(#ah); }
      .dash  { stroke:#7a8ba8; stroke-width:1.1; stroke-dasharray:4 3; fill:none; marker-end:url(#ahm); }
    </style>
  </defs>

  <rect x="0" y="0" width="1000" height="650" fill="#0a0a14"/>
  <rect x="2" y="2" width="996" height="646" fill="none" stroke="#1a1a3e" stroke-width="1"/>

  <text x="24" y="34" class="title" fill="#05d9e8" font-size="19">THE DESKTOP FLEET &#8212; ONE SHARED IN-APP TMUX WM</text>
  <text x="24" y="52" class="dim">seven non-terminal desktop apps embed the same <tspan class="mag">zgui-core &#183; ZGui.tmux</tspan> engine and run tmux&#8217;s full model over their own documents</text>

  <!-- ===== TOP ROW APPS ===== -->
  <rect x="110" y="78" width="150" height="52" rx="4" class="box"/>
  <text x="185" y="100" class="cyan title" font-size="12.5" text-anchor="middle">zmax-gui</text>
  <text x="185" y="118" class="dim" text-anchor="middle">editor per pane</text>

  <rect x="425" y="78" width="150" height="52" rx="4" class="box"/>
  <text x="500" y="100" class="cyan title" font-size="12.5" text-anchor="middle">zemail</text>
  <text x="500" y="118" class="dim" text-anchor="middle">mail view per pane</text>

  <rect x="740" y="78" width="150" height="52" rx="4" class="box"/>
  <text x="815" y="100" class="cyan title" font-size="12.5" text-anchor="middle">zoffice</text>
  <text x="815" y="118" class="dim" text-anchor="middle">documents per pane</text>

  <!-- ===== SIDE APPS ===== -->
  <rect x="40" y="315" width="140" height="52" rx="4" class="box"/>
  <text x="110" y="337" class="cyan title" font-size="12.5" text-anchor="middle">zpdf</text>
  <text x="110" y="355" class="dim" text-anchor="middle">PDF per pane</text>

  <rect x="820" y="315" width="140" height="52" rx="4" class="box"/>
  <text x="890" y="337" class="cyan title" font-size="12.5" text-anchor="middle">zphoto</text>
  <text x="890" y="355" class="dim" text-anchor="middle">photos per pane</text>

  <!-- ===== BOTTOM ROW APPS ===== -->
  <rect x="295" y="478" width="150" height="52" rx="4" class="box"/>
  <text x="370" y="500" class="cyan title" font-size="12.5" text-anchor="middle">zftp</text>
  <text x="370" y="518" class="dim" text-anchor="middle">transfers per pane</text>

  <rect x="555" y="478" width="150" height="52" rx="4" class="box"/>
  <text x="630" y="500" class="cyan title" font-size="12.5" text-anchor="middle">zreq</text>
  <text x="630" y="518" class="dim" text-anchor="middle">requests per pane</text>

  <!-- ===== CENTER ENGINE ===== -->
  <rect x="350" y="245" width="300" height="190" rx="4" class="jitbx"/>
  <text x="500" y="270" class="title" fill="#d300c5" font-size="14" text-anchor="middle">zgui-core &#183; ZGui.tmux</text>
  <text x="500" y="288" class="dim" text-anchor="middle">single 1,227-line window-manager component</text>
  <line x1="366" y1="298" x2="634" y2="298" stroke="#2a1a4e" stroke-width="1"/>
  <text x="500" y="314" class="t" font-size="11.5" text-anchor="middle">SESSION &#8594; WINDOWS (tabs) &#8594; PANES</text>
  <text x="500" y="331" class="dim" text-anchor="middle">split both ways &#183; nested to any depth</text>
  <text x="500" y="348" class="dim" text-anchor="middle">prefix C-b / &#8997;b &#183; synchronize-panes broadcast</text>
  <text x="500" y="365" class="dim" text-anchor="middle">copy-mode &#183; paste-buffers &#183; command-prompt</text>
  <text x="500" y="382" class="dim" text-anchor="middle">named session save / restore &#183; powerline segment</text>
  <text x="500" y="404" class="green" font-size="11" text-anchor="middle">ABSOLUTE-POSITION tiling</text>
  <text x="500" y="421" class="dim" text-anchor="middle" font-size="10.5">a pane never re-parents or reloads on split / retile / zoom</text>

  <!-- ===== EMBED ARROWS: each app &#8594; center engine ===== -->
  <path d="M185 130 L400 245" class="arrow"/>
  <path d="M500 130 L500 245" class="arrow"/>
  <path d="M815 130 L600 245" class="arrow"/>
  <path d="M180 341 L350 341" class="arrow"/>
  <path d="M820 341 L650 341" class="arrow"/>
  <path d="M370 478 L432 435" class="arrow"/>
  <path d="M630 478 L568 435" class="arrow"/>

  <!-- ===== WIRING NOTE ===== -->
  <rect x="20" y="552" width="960" height="52" rx="4" class="sub"/>
  <text x="38" y="573" class="h" font-size="12">wiring</text>
  <text x="120" y="573" class="dim">each app is ~35&#8211;200 lines that hands the WM three callbacks &#8212; <tspan class="cyan">openEmptyPane</tspan> &#183; <tspan class="cyan">renderPane</tspan> &#183; <tspan class="cyan">paneLabel</tspan></text>
  <text x="120" y="592" class="dim">so every pane mounts that app&#8217;s OWN document view (its own transport + state). Not terminals &#8212; the tmux MODEL over document content.</text>

  <text x="24" y="632" class="dim" font-size="10">first non-terminal desktop suite sharing one in-app tmux window manager over document content &#183; #170</text>
</svg>
