<svg xmlns="http://www.w3.org/2000/svg" viewBox="0 0 1000 470" font-family="'Share Tech Mono', ui-monospace, monospace">
  <defs>
    <marker id="ah" markerWidth="9" markerHeight="9" refX="7" refY="4.5" orient="auto">
      <path d="M0 0 L8 4.5 L0 9 Z" fill="#05d9e8"/>
    </marker>
    <marker id="ahm" markerWidth="9" markerHeight="9" refX="7" refY="4.5" orient="auto">
      <path d="M0 0 L8 4.5 L0 9 Z" fill="#7a8ba8"/>
    </marker>
    <style>
      .t     { fill:#e0f0ff; font-size:12px; }
      .dim   { fill:#7a8ba8; font-size:11px; }
      .cyan  { fill:#05d9e8; }
      .mag   { fill:#d300c5; }
      .pink  { fill:#ff6b9d; }
      .green { fill:#39ff14; }
      .title { font-family:'Orbitron', sans-serif; font-weight:700; }
      .h     { fill:#05d9e8; font-size:13px; font-family:'Orbitron', sans-serif; font-weight:700; }
      .box   { fill:#0d0d1a; stroke:#05d9e8; stroke-width:1.5; }
      .jitbx { fill:#0d0d1a; stroke:#d300c5; stroke-width:1.5; }
      .aotbx { fill:#0d0d1a; stroke:#ff2a6d; stroke-width:1.5; }
      .optbx { fill:#0b140b; stroke:#39ff14; stroke-width:1.4; }
      .chip  { fill:#10102a; stroke:#1a1a3e; stroke-width:1; }
      .sub   { fill:#10102a; stroke:#2a1a4e; stroke-width:1; }
      .arrow { stroke:#05d9e8; stroke-width:1.6; fill:none; marker-end:url(#ah); }
      .dash  { stroke:#7a8ba8; stroke-width:1.1; stroke-dasharray:4 3; fill:none; marker-end:url(#ahm); }
    </style>
  </defs>

  <rect x="0" y="0" width="1000" height="470" fill="#0a0a14"/>
  <rect x="2" y="2" width="996" height="466" fill="none" stroke="#1a1a3e" stroke-width="1"/>

  <text x="24" y="34" class="title" fill="#05d9e8" font-size="19">THE TAURI v2 GUI FLEET</text>
  <text x="24" y="52" class="dim">15 desktop apps in one compiled-native stack &#8212; each a thin Tauri v2 shell that mounts the same UI toolkit &amp; native host</text>

  <!-- ===== APP GRID (5 x 3) ===== -->
  <!-- row 1 -->
  <rect x="20"  y="70" width="182" height="62" rx="4" class="box"/>
  <text x="111" y="96"  class="cyan title" font-size="12.5" text-anchor="middle">zoffice</text>
  <text x="111" y="115" class="dim" text-anchor="middle">office suite</text>
  <rect x="211" y="70" width="182" height="62" rx="4" class="box"/>
  <text x="302" y="96"  class="cyan title" font-size="12.5" text-anchor="middle">zpdf</text>
  <text x="302" y="115" class="dim" text-anchor="middle">PDF &#183; edit / sign</text>
  <rect x="402" y="70" width="182" height="62" rx="4" class="box"/>
  <text x="493" y="96"  class="cyan title" font-size="12.5" text-anchor="middle">zphoto</text>
  <text x="493" y="115" class="dim" text-anchor="middle">photo editor</text>
  <rect x="593" y="70" width="182" height="62" rx="4" class="box"/>
  <text x="684" y="96"  class="cyan title" font-size="12.5" text-anchor="middle">zemail</text>
  <text x="684" y="115" class="dim" text-anchor="middle">mail client</text>
  <rect x="784" y="70" width="182" height="62" rx="4" class="box"/>
  <text x="875" y="96"  class="cyan title" font-size="12.5" text-anchor="middle">zcite</text>
  <text x="875" y="115" class="dim" text-anchor="middle">reference manager</text>

  <!-- row 2 -->
  <rect x="20"  y="142" width="182" height="62" rx="4" class="box"/>
  <text x="111" y="168" class="cyan title" font-size="12.5" text-anchor="middle">zreq</text>
  <text x="111" y="187" class="dim" text-anchor="middle">HTTP client</text>
  <rect x="211" y="142" width="182" height="62" rx="4" class="box"/>
  <text x="302" y="168" class="cyan title" font-size="12.5" text-anchor="middle">zftp</text>
  <text x="302" y="187" class="dim" text-anchor="middle">SFTP / FTP transfer</text>
  <rect x="402" y="142" width="182" height="62" rx="4" class="box"/>
  <text x="493" y="168" class="cyan title" font-size="12.5" text-anchor="middle">zgo</text>
  <text x="493" y="187" class="dim" text-anchor="middle">app launcher</text>
  <rect x="593" y="142" width="182" height="62" rx="4" class="box"/>
  <text x="684" y="168" class="cyan title" font-size="12.5" text-anchor="middle">zcontainer</text>
  <text x="684" y="187" class="dim" text-anchor="middle">Docker / K8s + daemon</text>
  <rect x="784" y="142" width="182" height="62" rx="4" class="box"/>
  <text x="875" y="168" class="cyan title" font-size="12.5" text-anchor="middle">ztunnel</text>
  <text x="875" y="187" class="dim" text-anchor="middle">SSH / VPN tunnels</text>

  <!-- row 3 -->
  <rect x="20"  y="214" width="182" height="62" rx="4" class="box"/>
  <text x="111" y="240" class="cyan title" font-size="12.5" text-anchor="middle">zstation</text>
  <text x="111" y="259" class="dim" text-anchor="middle">web-app workspace</text>
  <rect x="211" y="214" width="182" height="62" rx="4" class="box"/>
  <text x="302" y="240" class="cyan title" font-size="12.5" text-anchor="middle">zemacs-gui</text>
  <text x="302" y="259" class="dim" text-anchor="middle">Rust Emacs editor</text>
  <rect x="402" y="214" width="182" height="62" rx="4" class="box"/>
  <text x="493" y="240" class="cyan title" font-size="12.5" text-anchor="middle">traderview</text>
  <text x="493" y="259" class="dim" text-anchor="middle">trade journal</text>
  <rect x="593" y="214" width="182" height="62" rx="4" class="box"/>
  <text x="684" y="240" class="cyan title" font-size="12.5" text-anchor="middle">ztranslator</text>
  <text x="684" y="259" class="dim" text-anchor="middle">MIDI / event bridge</text>
  <rect x="784" y="214" width="182" height="62" rx="4" class="box"/>
  <text x="875" y="240" class="cyan title" font-size="12.5" text-anchor="middle">Audio-Haxor</text>
  <text x="875" y="259" class="dim" text-anchor="middle">plugin manager</text>

  <!-- connectors down to the shared substrate -->
  <path d="M111 276 L111 298" class="dash"/>
  <path d="M302 276 L302 298" class="dash"/>
  <path d="M493 276 L493 298" class="dash"/>
  <path d="M684 276 L684 298" class="dash"/>
  <path d="M875 276 L875 298" class="dash"/>

  <!-- ===== SHARED SUBSTRATE ===== -->
  <rect x="20" y="300" width="955" height="128" rx="4" class="box"/>
  <text x="38"  y="324" class="h">SHARED SUBSTRATE</text>
  <text x="222" y="324" class="dim">every app links these three &#183; consumed by submodule, never copied</text>

  <rect x="38"  y="336" width="298" height="84" rx="3" class="sub"/>
  <text x="187" y="360" class="cyan title" font-size="12.5" text-anchor="middle">zgui-core</text>
  <text x="187" y="380" class="dim" text-anchor="middle">UI toolkit + ZGui.tmux</text>
  <text x="187" y="399" class="dim" text-anchor="middle">~120 framework-free widgets</text>

  <rect x="350" y="336" width="297" height="84" rx="3" class="sub"/>
  <text x="498" y="360" class="cyan title" font-size="12.5" text-anchor="middle">zwire-host</text>
  <text x="498" y="380" class="dim" text-anchor="middle">native agent</text>
  <text x="498" y="399" class="dim" text-anchor="middle">browser-wide native host</text>

  <rect x="659" y="336" width="298" height="84" rx="3" class="sub"/>
  <text x="808" y="360" class="cyan title" font-size="12.5" text-anchor="middle">-core crate pattern</text>
  <text x="808" y="380" class="dim" text-anchor="middle">thin shell over a -core crate</text>
  <text x="808" y="399" class="dim" text-anchor="middle">rlib / staticlib / cdylib</text>

  <text x="24" y="452" class="dim" font-size="10">15 Tauri apps &#183; one shared zgui-core toolkit + native host &#183; each a thin shell over a -core crate</text>
</svg>
