<svg xmlns="http://www.w3.org/2000/svg" viewBox="0 0 1000 560" font-family="'Share Tech Mono', ui-monospace, monospace">
  <defs>
    <marker id="ah" markerWidth="9" markerHeight="9" refX="7" refY="4.5" orient="auto">
      <path d="M0 0 L8 4.5 L0 9 Z" fill="#05d9e8"/>
    </marker>
    <marker id="ahm" markerWidth="9" markerHeight="9" refX="7" refY="4.5" orient="auto">
      <path d="M0 0 L8 4.5 L0 9 Z" fill="#7a8ba8"/>
    </marker>
    <style>
      .t     { fill:#e0f0ff; font-size:12px; }
      .dim   { fill:#7a8ba8; font-size:11px; }
      .cyan  { fill:#05d9e8; }
      .mag   { fill:#d300c5; }
      .pink  { fill:#ff6b9d; }
      .green { fill:#39ff14; }
      .title { font-family:'Orbitron', sans-serif; font-weight:700; }
      .h     { fill:#05d9e8; font-size:13px; font-family:'Orbitron', sans-serif; font-weight:700; }
      .box   { fill:#0d0d1a; stroke:#05d9e8; stroke-width:1.5; }
      .jitbx { fill:#0d0d1a; stroke:#d300c5; stroke-width:1.5; }
      .aotbx { fill:#0d0d1a; stroke:#ff2a6d; stroke-width:1.5; }
      .optbx { fill:#0b140b; stroke:#39ff14; stroke-width:1.4; }
      .chip  { fill:#10102a; stroke:#1a1a3e; stroke-width:1; }
      .sub   { fill:#10102a; stroke:#2a1a4e; stroke-width:1; }
      .arrow { stroke:#05d9e8; stroke-width:1.6; fill:none; marker-end:url(#ah); }
      .dash  { stroke:#7a8ba8; stroke-width:1.1; stroke-dasharray:4 3; fill:none; marker-end:url(#ahm); }
    </style>
  </defs>

  <rect x="0" y="0" width="1000" height="560" fill="#0a0a14"/>
  <rect x="2" y="2" width="996" height="556" fill="none" stroke="#1a1a3e" stroke-width="1"/>

  <text x="24" y="34" class="title" fill="#05d9e8" font-size="19">THE PUBLICATIONS PIPELINE &#8212; FIRSTS &amp; THE COMPANION BOOKS</text>
  <text x="24" y="52" class="dim">the very toolchain that builds THIS book: sources &#8594; shared theme &#8594; pandoc/lualatex &#8594; the companion book set</text>

  <!-- ===== SOURCES ===== -->
  <rect x="20" y="72" width="225" height="112" rx="4" class="box"/>
  <text x="32" y="94"  class="h">SOURCES</text>
  <text x="32" y="116" class="cyan" font-size="11.5">INVENTIONS.md</text>
  <text x="32" y="132" class="dim">monorepo source of truth</text>
  <text x="32" y="156" class="cyan" font-size="11.5">docs/book.md &#215;N</text>
  <text x="32" y="172" class="dim">hand-written, one per project</text>

  <!-- ===== SHARED THEME ===== -->
  <rect x="20" y="200" width="225" height="150" rx="4" class="box"/>
  <text x="32" y="222" class="h">SHARED THEME</text>
  <text x="32" y="243" class="cyan" font-size="11">pdf_theme_lib.sh</text>
  <text x="32" y="259" class="cyan" font-size="11">reference_pdf_theme.tex</text>
  <text x="32" y="281" class="dim">cyberpunk dark theme</text>
  <text x="32" y="297" class="dim">Orbitron / Share Tech Mono</text>
  <text x="32" y="313" class="dim">/ Arimo &#183; auto-downloaded</text>
  <text x="32" y="336" class="green" font-size="10.5">luaotfload per-glyph fallback</text>

  <!-- ===== BUILD ===== -->
  <rect x="280" y="110" width="300" height="200" rx="4" class="box"/>
  <text x="296" y="132" class="h">BUILD</text>
  <text x="296" y="149" class="dim">book_pdf.sh drives the toolchain</text>
  <rect x="296" y="160" width="268" height="34" rx="4" class="sub"/>
  <text x="430" y="181" class="cyan" text-anchor="middle" font-size="11">pandoc &#183; --top-level-division=chapter</text>
  <rect x="296" y="204" width="268" height="34" rx="4" class="sub"/>
  <text x="430" y="225" class="cyan" text-anchor="middle" font-size="11">lualatex &#183; documentclass extreport</text>
  <rect x="296" y="248" width="268" height="34" rx="4" class="optbx"/>
  <text x="430" y="269" class="green" text-anchor="middle" font-size="12">book.pdf</text>
  <text x="296" y="300" class="dim" font-size="10.5">tests assert zero overfull boxes &#183; 200-page floor</text>

  <path d="M430 194 L430 204" class="arrow"/>
  <path d="M430 238 L430 248" class="arrow"/>

  <!-- feed arrows -->
  <path d="M245 122 L280 150" class="arrow"/>
  <path d="M245 268 L280 240" class="arrow"/>
  <path d="M580 210 L615 210" class="arrow"/>

  <!-- ===== OUTPUT ===== -->
  <rect x="615" y="72" width="365" height="430" rx="4" class="box"/>
  <text x="631" y="94"  class="h">THE COMPANION BOOK SET</text>
  <text x="631" y="111" class="dim">one pipeline, every book &#183; each subdir = a book</text>

  <rect x="633" y="126" width="158" height="27" rx="4" class="chip"/>
  <text x="712" y="144" class="t" text-anchor="middle" font-size="10.5">awkrs</text>
  <rect x="803" y="126" width="158" height="27" rx="4" class="chip"/>
  <text x="882" y="144" class="t" text-anchor="middle" font-size="10.5">desktop-in-rust</text>

  <rect x="633" y="156" width="158" height="27" rx="4" class="chip"/>
  <text x="712" y="174" class="t" text-anchor="middle" font-size="10.5">elisprs</text>
  <rect x="803" y="156" width="158" height="27" rx="4" class="chip"/>
  <text x="882" y="174" class="t" text-anchor="middle" font-size="10.5">fantasy</text>

  <rect x="633" y="186" width="158" height="27" rx="4" class="chip"/>
  <text x="712" y="204" class="t" text-anchor="middle" font-size="10.5">fusevm</text>
  <rect x="803" y="186" width="158" height="27" rx="4" class="chip"/>
  <text x="882" y="204" class="t" text-anchor="middle" font-size="10.5">powerliners</text>

  <rect x="633" y="216" width="158" height="27" rx="4" class="chip"/>
  <text x="712" y="234" class="t" text-anchor="middle" font-size="10.5">scifi</text>
  <rect x="803" y="216" width="158" height="27" rx="4" class="chip"/>
  <text x="882" y="234" class="t" text-anchor="middle" font-size="10.5">scifi2</text>

  <rect x="633" y="246" width="158" height="27" rx="4" class="chip"/>
  <text x="712" y="264" class="t" text-anchor="middle" font-size="10.5">scifi3</text>
  <rect x="803" y="246" width="158" height="27" rx="4" class="chip"/>
  <text x="882" y="264" class="t" text-anchor="middle" font-size="10.5">strykelang</text>

  <rect x="633" y="276" width="158" height="27" rx="4" class="chip"/>
  <text x="712" y="294" class="t" text-anchor="middle" font-size="10.5">vimlrs</text>
  <rect x="803" y="276" width="158" height="27" rx="4" class="chip"/>
  <text x="882" y="294" class="t" text-anchor="middle" font-size="10.5">zmax</text>

  <rect x="633" y="306" width="158" height="27" rx="4" class="chip"/>
  <text x="712" y="324" class="t" text-anchor="middle" font-size="10.5">zpwr</text>
  <rect x="803" y="306" width="158" height="27" rx="4" class="chip"/>
  <text x="882" y="324" class="t" text-anchor="middle" font-size="10.5">zshrs</text>

  <rect x="633" y="336" width="158" height="27" rx="4" class="chip"/>
  <text x="712" y="354" class="t" text-anchor="middle" font-size="10.5">zterminal</text>
  <rect x="803" y="336" width="158" height="27" rx="4" class="chip"/>
  <text x="882" y="354" class="t" text-anchor="middle" font-size="10.5">ztmux</text>

  <rect x="633" y="366" width="158" height="27" rx="4" class="chip"/>
  <text x="712" y="384" class="t" text-anchor="middle" font-size="10.5">zwire</text>
  <rect x="803" y="366" width="158" height="27" rx="4" class="jitbx"/>
  <text x="882" y="384" class="mag" text-anchor="middle" font-size="10.5">inventions &#8594; FIRSTS</text>

  <text x="631" y="414" class="mag" font-size="10.5">magenta = the whole-stack narrative edition</text>
  <text x="631" y="432" class="dim" font-size="10.5">rsvg-convert turns each diagram SVG into a vector PDF</text>

  <text x="24" y="540" class="dim" font-size="10">one shared cyberpunk pandoc &#8594; lualatex toolchain &#183; the ledger book is the narrative edition of INVENTIONS.md</text>
</svg>
