<svg xmlns="http://www.w3.org/2000/svg" viewBox="0 0 1000 600" font-family="'Share Tech Mono', ui-monospace, monospace">
  <defs>
    <marker id="ah" markerWidth="9" markerHeight="9" refX="7" refY="4.5" orient="auto">
      <path d="M0 0 L8 4.5 L0 9 Z" fill="#05d9e8"/>
    </marker>
    <marker id="ahm" markerWidth="9" markerHeight="9" refX="7" refY="4.5" orient="auto">
      <path d="M0 0 L8 4.5 L0 9 Z" fill="#7a8ba8"/>
    </marker>
    <style>
      .t     { fill:#e0f0ff; font-size:12px; }
      .dim   { fill:#7a8ba8; font-size:11px; }
      .cyan  { fill:#05d9e8; }
      .mag   { fill:#d300c5; }
      .pink  { fill:#ff6b9d; }
      .green { fill:#39ff14; }
      .title { font-family:'Orbitron', sans-serif; font-weight:700; }
      .h     { fill:#05d9e8; font-size:13px; font-family:'Orbitron', sans-serif; font-weight:700; }
      .box   { fill:#0d0d1a; stroke:#05d9e8; stroke-width:1.5; }
      .jitbx { fill:#0d0d1a; stroke:#d300c5; stroke-width:1.5; }
      .aotbx { fill:#0d0d1a; stroke:#ff2a6d; stroke-width:1.5; }
      .optbx { fill:#0b140b; stroke:#39ff14; stroke-width:1.4; }
      .chip  { fill:#10102a; stroke:#1a1a3e; stroke-width:1; }
      .sub   { fill:#10102a; stroke:#2a1a4e; stroke-width:1; }
      .arrow { stroke:#05d9e8; stroke-width:1.6; fill:none; marker-end:url(#ah); }
      .dash  { stroke:#7a8ba8; stroke-width:1.1; stroke-dasharray:4 3; fill:none; marker-end:url(#ahm); }
    </style>
  </defs>

  <rect x="0" y="0" width="1000" height="600" fill="#0a0a14"/>
  <rect x="2" y="2" width="996" height="596" fill="none" stroke="#1a1a3e" stroke-width="1"/>

  <text x="24" y="34" class="title" fill="#05d9e8" font-size="19">ZGUI-CORE &#8212; THE SHARED GUI TOOLKIT</text>
  <text x="24" y="52" class="dim">one framework-free web-component library &#8594; every desktop &amp; browser app in the fleet &#183; the GUI analog of zdsp-core</text>

  <!-- ===== CLUSTERS ===== -->
  <rect x="20" y="68" width="226" height="168" rx="4" class="box"/>
  <text x="38" y="88" class="h">WINDOW MGMT</text>
  <text x="38" y="108" class="cyan" font-size="11">ZGui.tmux &#8212; 1,227-L in-app WM</text>
  <text x="38" y="123" class="dim">card &#183; resizable</text>
  <text x="38" y="138" class="dim">column-resize &#183; splash</text>
  <text x="38" y="153" class="dim">dock &#183; drawer &#183; modal</text>
  <text x="38" y="168" class="dim">app-shell (mandatory baseline)</text>
  <text x="38" y="183" class="dim">split-pane &#183; carousel</text>
  <text x="38" y="207" class="green" font-size="10.5">absolute-position tiling,</text>
  <text x="38" y="221" class="green" font-size="10.5">panes never reload on retile</text>

  <rect x="258" y="68" width="226" height="168" rx="4" class="box"/>
  <text x="276" y="88" class="h">AUDIO / DAW</text>
  <text x="276" y="108" class="dim">knob &#183; db-fader &#183; drawbar</text>
  <text x="276" y="123" class="dim">bipolar-slider &#183; eq</text>
  <text x="276" y="138" class="dim">peak / vu / lufs-meter</text>
  <text x="276" y="153" class="dim">spectrum-analyzer &#183; spectrogram</text>
  <text x="276" y="168" class="dim">goniometer &#183; correlation-meter</text>
  <text x="276" y="183" class="dim">gain-reduction &#183; channel-strip</text>
  <text x="276" y="198" class="dim">patchbay &#183; keyboard &#183; wavetable</text>
  <text x="276" y="213" class="dim">step-sequencer &#183; envelope &#183; viz</text>
  <text x="276" y="228" class="cyan" font-size="10.5">static-JS DAW controls</text>

  <rect x="496" y="68" width="226" height="168" rx="4" class="box"/>
  <text x="514" y="88" class="h">TRADING</text>
  <text x="514" y="108" class="dim">order-book &#183; dom-ladder</text>
  <text x="514" y="123" class="dim">depth-chart &#183; candlestick</text>
  <text x="514" y="138" class="dim">volume-profile &#183; cvd-line</text>
  <text x="514" y="153" class="dim">time-and-sales</text>
  <text x="514" y="168" class="dim">liquidity-heatmap</text>
  <text x="514" y="183" class="dim">ticker-tape &#183; sparkline</text>
  <text x="514" y="207" class="cyan" font-size="10.5">a market-data terminal set</text>
  <text x="514" y="221" class="cyan" font-size="10.5">in the same kit</text>

  <rect x="734" y="68" width="246" height="168" rx="4" class="box"/>
  <text x="752" y="88" class="h">SHELL / UI</text>
  <text x="752" y="108" class="dim">command-palette &#183; fzf</text>
  <text x="752" y="123" class="dim">search-box &#183; colorscheme</text>
  <text x="752" y="138" class="dim">crt &#183; fx &#183; toast</text>
  <text x="752" y="153" class="dim">icons &#183; logo &#183; settings</text>
  <text x="752" y="168" class="dim">shortcuts &#183; help-overlay</text>
  <text x="752" y="183" class="dim">diff-scrubber &#183; table &#183; chart</text>
  <text x="752" y="207" class="green" font-size="10.5">auto-installed Emacs/readline</text>
  <text x="752" y="221" class="green" font-size="10.5">line-editing on every input</text>

  <path d="M133 236 L133 252" class="arrow"/>
  <path d="M371 236 L371 252" class="arrow"/>
  <path d="M609 236 L609 252" class="arrow"/>
  <path d="M857 236 L857 252" class="arrow"/>

  <!-- ===== CORE ===== -->
  <rect x="120" y="252" width="760" height="66" rx="4" class="jitbx"/>
  <text x="500" y="276" class="title" fill="#d300c5" font-size="14" text-anchor="middle">zgui-core &#183; ZGui.*</text>
  <text x="500" y="296" class="dim" text-anchor="middle">one shared framework-free web-component library &#183; no build step &#183; no React/Vue &#183; no virtual DOM</text>
  <text x="500" y="310" class="dim" text-anchor="middle">245 static JS components &#183; each a self-contained IIFE &#8594; { el, get(), set() } &#183; consumed by submodule, never copied</text>

  <path d="M300 338 L300 318" class="dash"/>
  <path d="M500 338 L500 318" class="dash"/>
  <path d="M700 338 L700 318" class="dash"/>

  <!-- ===== CONSUMERS ===== -->
  <rect x="20" y="338" width="960" height="104" rx="4" class="box"/>
  <text x="38" y="358" class="h">CONSUMERS &#8212; one library, every app</text>

  <rect x="32"  y="366" width="176" height="30" rx="3" class="chip"/>
  <text x="120" y="386" class="cyan" font-size="11" text-anchor="middle">zwire browser HUD</text>
  <rect x="220" y="366" width="176" height="30" rx="3" class="chip"/>
  <text x="308" y="386" class="cyan" font-size="11" text-anchor="middle">zemacs-gui</text>
  <rect x="408" y="366" width="176" height="30" rx="3" class="chip"/>
  <text x="496" y="386" class="cyan" font-size="11" text-anchor="middle">zemail</text>
  <rect x="596" y="366" width="176" height="30" rx="3" class="chip"/>
  <text x="684" y="386" class="cyan" font-size="11" text-anchor="middle">zoffice</text>
  <rect x="784" y="366" width="176" height="30" rx="3" class="chip"/>
  <text x="872" y="386" class="cyan" font-size="11" text-anchor="middle">zpdf</text>

  <rect x="118" y="402" width="176" height="30" rx="3" class="chip"/>
  <text x="206" y="422" class="cyan" font-size="11" text-anchor="middle">zphoto</text>
  <rect x="314" y="402" width="176" height="30" rx="3" class="chip"/>
  <text x="402" y="422" class="cyan" font-size="11" text-anchor="middle">traderview</text>
  <rect x="510" y="402" width="176" height="30" rx="3" class="chip"/>
  <text x="598" y="422" class="cyan" font-size="11" text-anchor="middle">ztranslator</text>
  <rect x="706" y="402" width="176" height="30" rx="3" class="chip"/>
  <text x="794" y="422" class="cyan" font-size="11" text-anchor="middle">Audio-Haxor</text>

  <text x="24" y="466" class="dim" font-size="10">one shared UI toolkit vendored by every GUI app &#8212; the GUI analog of the shared zdsp-core DSP library</text>
</svg>
